<?xml version="1.0" encoding="UTF-8" standalone="no"?>
<svg
   xmlns:dc="http://purl.org/dc/elements/1.1/"
   xmlns:cc="http://creativecommons.org/ns#"
   xmlns:rdf="http://www.w3.org/1999/02/22-rdf-syntax-ns#"
   xmlns:svg="http://www.w3.org/2000/svg"
   xmlns="http://www.w3.org/2000/svg"
   viewBox="0 0 1380.16 680"
   height="680"
   width="1380.16"
   xml:space="preserve"
   id="svg2"
   version="1.1"><metadata
     id="metadata8"><rdf:RDF><cc:Work
         rdf:about=""><dc:format>image/svg+xml</dc:format><dc:type
           rdf:resource="http://purl.org/dc/dcmitype/StillImage" /></cc:Work></rdf:RDF></metadata><defs
     id="defs6"><clipPath
       id="clipPath18"
       clipPathUnits="userSpaceOnUse"><path
         style="clip-rule:evenodd"
         id="path16"
         d="M 0,0 H 4312.5 V 2125 H 0 Z" /></clipPath><clipPath
       id="clipPath52"
       clipPathUnits="userSpaceOnUse"><path
         id="path50"
         d="M 0,0 H 4312.5 V 2125 H 0 Z" /></clipPath><clipPath
       id="clipPath58"
       clipPathUnits="userSpaceOnUse"><path
         id="path56"
         d="M 640.625,643.75 V 525 c -6e-5,-2.58887 0.91522,-4.79858 2.74579,-6.62915 1.83063,-1.83057 4.04034,-2.74585 6.62921,-2.74585 h 1418.75 c 2.5886,0 4.7983,0.91528 6.6289,2.74585 1.8308,1.83057 2.7461,4.04028 2.7461,6.62915 v 118.75 c 0,2.58881 -0.9153,4.79846 -2.7461,6.62909 -1.8306,1.83057 -4.0403,2.74585 -6.6289,2.74591 H 650 c -2.58887,-6e-5 -4.79858,-0.91534 -6.62921,-2.74591 -1.83057,-1.83063 -2.74585,-4.04028 -2.74579,-6.62909 z" /></clipPath><clipPath
       id="clipPath72"
       clipPathUnits="userSpaceOnUse"><path
         style="clip-rule:evenodd"
         id="path70"
         d="M 0,0 H 4312.5 V 2125 H 0 Z" /></clipPath><clipPath
       id="clipPath90"
       clipPathUnits="userSpaceOnUse"><path
         id="path88"
         d="M 0,0 H 4312.5 V 2125 H 0 Z" /></clipPath><clipPath
       id="clipPath96"
       clipPathUnits="userSpaceOnUse"><path
         id="path94"
         d="M 640.625,968.75 V 850 c -6e-5,-2.58887 0.91522,-4.79858 2.74579,-6.62921 1.83063,-1.83051 4.04034,-2.74579 6.62921,-2.74579 h 1418.75 c 2.5886,0 4.7983,0.91528 6.6289,2.74579 1.8308,1.83063 2.7461,4.04034 2.7461,6.62921 v 118.75 c 0,2.58881 -0.9153,4.79846 -2.7461,6.62903 -1.8306,1.83063 -4.0403,2.74591 -6.6289,2.74597 H 650 c -2.58887,-6e-5 -4.79858,-0.91534 -6.62921,-2.74597 -1.83057,-1.83057 -2.74585,-4.04022 -2.74579,-6.62903 z" /></clipPath><clipPath
       id="clipPath110"
       clipPathUnits="userSpaceOnUse"><path
         style="clip-rule:evenodd"
         id="path108"
         d="M 0,0 H 4312.5 V 2125 H 0 Z" /></clipPath><clipPath
       id="clipPath128"
       clipPathUnits="userSpaceOnUse"><path
         id="path126"
         d="M 0,0 H 4312.5 V 2125 H 0 Z" /></clipPath><clipPath
       id="clipPath134"
       clipPathUnits="userSpaceOnUse"><path
         id="path132"
         d="M 640.625,1281.25 V 1162.5 c -6e-5,-2.5889 0.91522,-4.7986 2.74579,-6.6291 1.83063,-1.8306 4.04034,-2.7459 6.62921,-2.7459 h 912.5 c 2.5888,0 4.7983,0.9153 6.629,2.7459 1.8306,1.8305 2.7459,4.0402 2.746,6.6291 v 118.75 c -10e-5,2.5888 -0.9154,4.7985 -2.746,6.629 -1.8307,1.8306 -4.0402,2.7459 -6.629,2.746 H 650 c -2.58887,-10e-5 -4.79858,-0.9154 -6.62921,-2.746 -1.83057,-1.8305 -2.74585,-4.0402 -2.74579,-6.629 z" /></clipPath><clipPath
       id="clipPath148"
       clipPathUnits="userSpaceOnUse"><path
         style="clip-rule:evenodd"
         id="path146"
         d="M 0,0 H 4312.5 V 2125 H 0 Z" /></clipPath><clipPath
       id="clipPath166"
       clipPathUnits="userSpaceOnUse"><path
         id="path164"
         d="M 0,0 H 4312.5 V 2125 H 0 Z" /></clipPath><clipPath
       id="clipPath172"
       clipPathUnits="userSpaceOnUse"><path
         id="path170"
         d="M 1653.125,1281.25 V 1162.5 c 0,-2.5889 0.9153,-4.7986 2.7459,-6.6291 1.8305,-1.8306 4.0402,-2.7459 6.6291,-2.7459 h 406.25 c 2.5886,0 4.7983,0.9153 6.6289,2.7459 1.8308,1.8305 2.7461,4.0402 2.7461,6.6291 v 118.75 c 0,2.5888 -0.9153,4.7985 -2.7461,6.629 -1.8306,1.8306 -4.0403,2.7459 -6.6289,2.746 H 1662.5 c -2.5889,-10e-5 -4.7986,-0.9154 -6.6291,-2.746 -1.8306,-1.8305 -2.7459,-4.0402 -2.7459,-6.629 z" /></clipPath><clipPath
       id="clipPath186"
       clipPathUnits="userSpaceOnUse"><path
         style="clip-rule:evenodd"
         id="path184"
         d="M 0,0 H 4312.5 V 2125 H 0 Z" /></clipPath><clipPath
       id="clipPath204"
       clipPathUnits="userSpaceOnUse"><path
         id="path202"
         d="M 0,0 H 4312.5 V 2125 H 0 Z" /></clipPath><clipPath
       id="clipPath210"
       clipPathUnits="userSpaceOnUse"><path
         id="path208"
         d="M 640.625,1606.25 V 1487.5 c -6e-5,-2.589 0.91522,-4.7987 2.74579,-6.6293 1.83063,-1.8304 4.04034,-2.7457 6.62921,-2.7457 h 912.5 c 2.5888,0 4.7983,0.9153 6.629,2.7457 1.8306,1.8306 2.7459,4.0403 2.746,6.6293 v 118.75 c -10e-5,2.5888 -0.9154,4.7985 -2.746,6.629 -1.8307,1.8306 -4.0402,2.7459 -6.629,2.746 H 650 c -2.58887,-10e-5 -4.79858,-0.9154 -6.62921,-2.746 -1.83057,-1.8305 -2.74585,-4.0402 -2.74579,-6.629 z" /></clipPath><clipPath
       id="clipPath224"
       clipPathUnits="userSpaceOnUse"><path
         style="clip-rule:evenodd"
         id="path222"
         d="M 0,0 H 4312.5 V 2125 H 0 Z" /></clipPath><clipPath
       id="clipPath242"
       clipPathUnits="userSpaceOnUse"><path
         id="path240"
         d="M 0,0 H 4312.5 V 2125 H 0 Z" /></clipPath><clipPath
       id="clipPath248"
       clipPathUnits="userSpaceOnUse"><path
         id="path246"
         d="M 1653.125,1606.25 V 1487.5 c 0,-2.589 0.9153,-4.7987 2.7459,-6.6293 1.8305,-1.8304 4.0402,-2.7457 6.6291,-2.7457 h 406.25 c 2.5886,0 4.7983,0.9153 6.6289,2.7457 1.8308,1.8306 2.7461,4.0403 2.7461,6.6293 v 118.75 c 0,2.5888 -0.9153,4.7985 -2.7461,6.629 -1.8306,1.8306 -4.0403,2.7459 -6.6289,2.746 H 1662.5 c -2.5889,-10e-5 -4.7986,-0.9154 -6.6291,-2.746 -1.8306,-1.8305 -2.7459,-4.0402 -2.7459,-6.629 z" /></clipPath><clipPath
       id="clipPath262"
       clipPathUnits="userSpaceOnUse"><path
         style="clip-rule:evenodd"
         id="path260"
         d="M 0,0 H 4312.5 V 2125 H 0 Z" /></clipPath><clipPath
       id="clipPath292"
       clipPathUnits="userSpaceOnUse"><path
         id="path290"
         d="M 0,0 H 4312.5 V 2125 H 0 Z" /></clipPath><clipPath
       id="clipPath298"
       clipPathUnits="userSpaceOnUse"><path
         id="path296"
         d="M 2237.5,643.75 V 525 c -2e-4,-2.58887 0.915,-4.79858 2.7456,-6.62915 1.8308,-1.83057 4.0405,-2.74585 6.6294,-2.74585 h 659.375 c 2.5886,0 4.7983,0.91528 6.6289,2.74585 1.8306,1.83057 2.7459,4.04028 2.7461,6.62915 v 118.75 c -2e-4,2.58881 -0.9155,4.79846 -2.7461,6.62909 -1.8306,1.83057 -4.0403,2.74585 -6.6289,2.74591 h -659.375 c -2.5889,-6e-5 -4.7986,-0.91534 -6.6294,-2.74591 -1.8306,-1.83063 -2.7458,-4.04028 -2.7456,-6.62909 z" /></clipPath><clipPath
       id="clipPath312"
       clipPathUnits="userSpaceOnUse"><path
         style="clip-rule:evenodd"
         id="path310"
         d="M 0,0 H 4312.5 V 2125 H 0 Z" /></clipPath><clipPath
       id="clipPath330"
       clipPathUnits="userSpaceOnUse"><path
         id="path328"
         d="M 0,0 H 4312.5 V 2125 H 0 Z" /></clipPath><clipPath
       id="clipPath336"
       clipPathUnits="userSpaceOnUse"><path
         id="path334"
         d="M 2996.875,643.75 V 525 c -2e-4,-2.58887 0.915,-4.79858 2.7456,-6.62915 1.8306,-1.83057 4.0403,-2.74585 6.6294,-2.74585 h 656.25 c 2.5886,0 4.7983,0.91528 6.6289,2.74585 1.8306,1.83057 2.7459,4.04028 2.7461,6.62915 v 118.75 c -2e-4,2.58881 -0.9155,4.79846 -2.7461,6.62909 -1.8306,1.83057 -4.0403,2.74585 -6.6289,2.74591 h -656.25 c -2.5891,-6e-5 -4.7988,-0.91534 -6.6294,-2.74591 -1.8306,-1.83063 -2.7458,-4.04028 -2.7456,-6.62909 z" /></clipPath><clipPath
       id="clipPath350"
       clipPathUnits="userSpaceOnUse"><path
         style="clip-rule:evenodd"
         id="path348"
         d="M 0,0 H 4312.5 V 2125 H 0 Z" /></clipPath><clipPath
       id="clipPath368"
       clipPathUnits="userSpaceOnUse"><path
         id="path366"
         d="M 0,0 H 4312.5 V 2125 H 0 Z" /></clipPath><clipPath
       id="clipPath374"
       clipPathUnits="userSpaceOnUse"><path
         id="path372"
         d="M 2237.5,956.25 V 837.5 c -2e-4,-2.58893 0.915,-4.79865 2.7456,-6.62921 1.8308,-1.83051 4.0405,-2.74579 6.6294,-2.74579 H 3662.5 c 2.5886,0 4.7983,0.91528 6.6289,2.74579 1.8306,1.83056 2.7459,4.04028 2.7461,6.62921 v 118.75 c -2e-4,2.58881 -0.9155,4.79852 -2.7461,6.62909 -1.8306,1.83063 -4.0403,2.74591 -6.6289,2.74591 H 2246.875 c -2.5889,0 -4.7986,-0.91528 -6.6294,-2.74591 -1.8306,-1.83057 -2.7458,-4.04028 -2.7456,-6.62909 z" /></clipPath><clipPath
       id="clipPath388"
       clipPathUnits="userSpaceOnUse"><path
         style="clip-rule:evenodd"
         id="path386"
         d="M 0,0 H 4312.5 V 2125 H 0 Z" /></clipPath><clipPath
       id="clipPath406"
       clipPathUnits="userSpaceOnUse"><path
         id="path404"
         d="M 0,0 H 4312.5 V 2125 H 0 Z" /></clipPath><clipPath
       id="clipPath412"
       clipPathUnits="userSpaceOnUse"><path
         id="path410"
         d="M 2237.5,1268.75 V 1150 c -2e-4,-2.5889 0.915,-4.7986 2.7456,-6.6291 1.8308,-1.8306 4.0405,-2.7459 6.6294,-2.7459 H 3662.5 c 2.5886,0 4.7983,0.9153 6.6289,2.7459 1.8306,1.8305 2.7459,4.0402 2.7461,6.6291 v 118.75 c -2e-4,2.5888 -0.9155,4.7983 -2.7461,6.629 -1.8306,1.8306 -4.0403,2.7459 -6.6289,2.746 H 2246.875 c -2.5889,-10e-5 -4.7986,-0.9154 -6.6294,-2.746 -1.8306,-1.8307 -2.7458,-4.0402 -2.7456,-6.629 z" /></clipPath><clipPath
       id="clipPath418"
       clipPathUnits="userSpaceOnUse"><path
         id="path416"
         d="m 2287.5,1181.25 h 1334.375 v 56.25 H 2287.5 Z" /></clipPath><clipPath
       id="clipPath432"
       clipPathUnits="userSpaceOnUse"><path
         style="clip-rule:evenodd"
         id="path430"
         d="M 0,0 H 4312.5 V 2125 H 0 Z" /></clipPath><clipPath
       id="clipPath450"
       clipPathUnits="userSpaceOnUse"><path
         id="path448"
         d="M 0,0 H 4312.5 V 2125 H 0 Z" /></clipPath><clipPath
       id="clipPath456"
       clipPathUnits="userSpaceOnUse"><path
         id="path454"
         d="M 2237.5,1581.25 V 1462.5 c -2e-4,-2.5889 0.915,-4.7986 2.7456,-6.6291 1.8308,-1.8306 4.0405,-2.7459 6.6294,-2.7459 H 3662.5 c 2.5886,0 4.7983,0.9153 6.6289,2.7459 1.8306,1.8305 2.7459,4.0402 2.7461,6.6291 v 118.75 c -2e-4,2.5888 -0.9155,4.7985 -2.7461,6.629 -1.8306,1.8306 -4.0403,2.7459 -6.6289,2.746 H 2246.875 c -2.5889,-10e-5 -4.7986,-0.9154 -6.6294,-2.746 -1.8306,-1.8305 -2.7458,-4.0402 -2.7456,-6.629 z" /></clipPath><clipPath
       id="clipPath470"
       clipPathUnits="userSpaceOnUse"><path
         style="clip-rule:evenodd"
         id="path468"
         d="M 0,0 H 4312.5 V 2125 H 0 Z" /></clipPath></defs><g
     transform="matrix(0.31999998,0,0,0.31999998,0,1.7e-5)"
     id="g10"><g
       id="g12"><g
         clip-path="url(#clipPath18)"
         id="g14"><g
           transform="scale(3.125)"
           id="g20"><path
             id="path22"
             style="fill:#ffffff;fill-opacity:1;fill-rule:nonzero;stroke:none"
             d="M 0,0 H 1380 V 744 H 0 Z" /><path
             id="path24"
             style="fill:#ffffff;fill-opacity:1;fill-rule:nonzero;stroke:none"
             d="M 178,64 H 1202 V 615 H 178 Z" /><path
             id="path26"
             style="fill:none;stroke:#edf2f7;stroke-width:1;stroke-linecap:butt;stroke-linejoin:miter;stroke-miterlimit:10;stroke-dasharray:none;stroke-opacity:1"
             d="M 179,607 V 72 c -2e-5,-0.459625 0.0448,-0.914833 0.13449,-1.365631 0.0897,-0.450798 0.22246,-0.888519 0.39835,-1.313164 0.17588,-0.424637 0.39151,-0.828041 0.64686,-1.210205 0.25536,-0.382164 0.54553,-0.735748 0.87055,-1.060753 0.32499,-0.325004 0.67859,-0.615188 1.06074,-0.870537 0.38217,-0.255355 0.78557,-0.470977 1.21021,-0.646873 0.42463,-0.175896 0.86236,-0.30867 1.31315,-0.398338 C 185.08514,65.04483 185.54036,65 186,65 h 1008 c 0.4596,0 0.9148,0.04483 1.3655,0.134499 0.4508,0.08967 0.8884,0.222442 1.3131,0.398338 0.4247,0.175896 0.8281,0.391518 1.2103,0.646873 0.3822,0.255349 0.7357,0.545533 1.0608,0.870537 0.3251,0.325005 0.6152,0.678589 0.8705,1.060753 0.2552,0.382164 0.4709,0.785568 0.6468,1.210205 0.1759,0.424645 0.3088,0.862366 0.3985,1.313164 C 1200.9552,71.085167 1201,71.540375 1201,72 v 535 c 0,0.45959 -0.045,0.91479 -0.1345,1.3656 -0.09,0.45075 -0.2226,0.88849 -0.3985,1.31311 -0.1759,0.42462 -0.3916,0.82806 -0.6468,1.21021 -0.2553,0.38214 -0.5454,0.73577 -0.8705,1.06079 -0.3251,0.32501 -0.6786,0.61517 -1.0608,0.87048 -0.3822,0.25531 -0.7856,0.47095 -1.2103,0.64685 -0.4247,0.1759 -0.8623,0.30872 -1.3131,0.39844 C 1194.9148,613.95514 1194.4596,614 1194,614 H 186 c -0.45964,0 -0.91486,-0.0449 -1.36565,-0.13452 -0.45079,-0.0897 -0.88852,-0.22254 -1.31315,-0.39844 -0.42464,-0.1759 -0.82804,-0.39154 -1.21021,-0.64685 -0.38215,-0.25531 -0.73575,-0.54547 -1.06074,-0.87048 -0.32502,-0.32502 -0.61519,-0.67865 -0.87055,-1.06079 -0.25535,-0.38215 -0.47098,-0.78559 -0.64686,-1.21021 -0.17589,-0.42462 -0.30867,-0.86236 -0.39835,-1.31311 C 179.04482,607.91479 178.99998,607.45959 179,607 Z" /><path
             id="path28"
             style="fill:#e9d8fd;fill-opacity:1;fill-rule:nonzero;stroke:none"
             d="m 666,106 c -6e-5,1.05057 -0.10254,2.09106 -0.3075,3.12144 -0.20501,1.03039 -0.50848,2.03089 -0.91052,3.00149 -0.40204,0.97061 -0.8949,1.89266 -1.47857,2.76619 -0.58362,0.87351 -1.24689,1.6817 -1.98975,2.42459 -0.74286,0.74286 -1.55109,1.40612 -2.42462,1.9898 -0.8736,0.58366 -1.79566,1.07651 -2.76624,1.47855 -0.97058,0.40205 -1.97107,0.70554 -3.00146,0.9105 -1.03034,0.20495 -2.0708,0.30743 -3.12134,0.30744 -1.0506,-1e-5 -2.09113,-0.10249 -3.12152,-0.30745 -1.0304,-0.20495 -2.03088,-0.50844 -3.00153,-0.91049 -0.97058,-0.40204 -1.89264,-0.89489 -2.76617,-1.47855 -0.87348,-0.58368 -1.6817,-1.24694 -2.42456,-1.9898 -0.74286,-0.74289 -1.40619,-1.55108 -1.98987,-2.4246 -0.58368,-0.87352 -1.07654,-1.79558 -1.47852,-2.76619 -0.40203,-0.9706 -0.7055,-1.97109 -0.91052,-3.00148 C 634.10242,108.09106 633.99994,107.05057 634,106 c -6e-5,-1.05057 0.10242,-2.09106 0.30731,-3.12145 0.20502,-1.03039 0.50849,-2.03089 0.91052,-3.001498 0.40198,-0.970604 0.89484,-1.892669 1.47852,-2.766189 0.58368,-0.87352 1.24701,-1.68171 1.98987,-2.424576 0.74286,-0.742867 1.55108,-1.406136 2.42456,-1.989807 0.87353,-0.583664 1.79559,-1.076515 2.76617,-1.478554 0.97065,-0.402039 1.97113,-0.705536 3.00153,-0.910492 C 647.90887,90.102478 648.9494,90 650,90 c 1.05054,0 2.091,0.102478 3.12134,0.307434 1.03039,0.204956 2.03088,0.508453 3.00146,0.910492 0.97058,0.402039 1.89264,0.89489 2.76624,1.478546 0.87353,0.583672 1.68176,1.246948 2.42462,1.989815 0.74286,0.742866 1.40613,1.551056 1.98975,2.424576 0.58367,0.873527 1.07653,1.795593 1.47857,2.766197 0.40204,0.9706 0.70551,1.9711 0.91052,3.00149 0.20496,1.03039 0.30744,2.07088 0.3075,3.12145 z" /><text
             id="text32"
             style="font-variant:normal;font-weight:bold;font-size:14px;font-family:'Liberation Sans';-inkscape-font-specification:LiberationSans-Bold;writing-mode:lr-tb;fill:#2c3e50;fill-opacity:1;fill-rule:nonzero;stroke:none"
             transform="translate(646.10938,111)"><tspan
               id="tspan30"
               y="0"
               x="0">1</tspan></text>
<text
             id="text36"
             style="font-variant:normal;font-weight:bold;font-size:16px;font-family:'Liberation Sans';-inkscape-font-specification:LiberationSans-Bold;writing-mode:lr-tb;fill:#2c3e50;fill-opacity:1;fill-rule:nonzero;stroke:none"
             transform="translate(204,107)"><tspan
               id="tspan34"
               y="0"
               x="0 11.554688 21.328125 35.554688 45.328125 54.226562 64 72.898438 77.34375 88.898438 97.796875 107.57031 112.01562 120.91406 126.24219 132.46875 141.36719 146.69531 151.14062 160.91406">Company Registration</tspan></text>
<path
             id="path38"
             style="fill:#ffffff;fill-opacity:1;fill-rule:nonzero;stroke:none"
             d="m 204.5,206 v -38 c -2e-5,-0.46413 0.0888,-0.9106 0.2664,-1.3394 0.1776,-0.4288 0.43051,-0.8073 0.75872,-1.13548 0.32817,-0.32821 0.70666,-0.5811 1.13546,-0.7587 C 207.08939,164.58881 207.53586,164.5 208,164.5 h 454 c 0.46405,0 0.91052,0.0888 1.33929,0.26642 0.42884,0.1776 0.80738,0.43049 1.13556,0.7587 0.32819,0.32818 0.58106,0.70668 0.75873,1.13548 0.17755,0.4288 0.26636,0.87527 0.26642,1.3394 v 38 c -6e-5,0.46411 -0.0889,0.91057 -0.26642,1.33937 -0.17767,0.42879 -0.43054,0.80728 -0.75873,1.13548 -0.32818,0.32817 -0.70672,0.58107 -1.13556,0.75869 -0.42877,0.17762 -0.87524,0.26644 -1.33929,0.26646 H 208 c -0.46414,-2e-5 -0.91061,-0.0888 -1.33942,-0.26646 -0.4288,-0.17762 -0.80729,-0.43052 -1.13546,-0.75869 -0.32821,-0.3282 -0.58112,-0.70669 -0.75872,-1.13548 -0.17762,-0.4288 -0.26642,-0.87526 -0.2664,-1.33937 z" /><path
             id="path40"
             style="fill:none;stroke:#edf2f7;stroke-width:1;stroke-linecap:butt;stroke-linejoin:miter;stroke-miterlimit:10;stroke-dasharray:none;stroke-opacity:1"
             d="m 204.5,206 v -38 c -2e-5,-0.46413 0.0888,-0.9106 0.2664,-1.3394 0.1776,-0.4288 0.43051,-0.8073 0.75872,-1.13548 0.32817,-0.32821 0.70666,-0.5811 1.13546,-0.7587 C 207.08939,164.58881 207.53586,164.5 208,164.5 h 454 c 0.46405,0 0.91052,0.0888 1.33929,0.26642 0.42884,0.1776 0.80738,0.43049 1.13556,0.7587 0.32819,0.32818 0.58106,0.70668 0.75873,1.13548 0.17755,0.4288 0.26636,0.87527 0.26642,1.3394 v 38 c -6e-5,0.46411 -0.0889,0.91057 -0.26642,1.33937 -0.17767,0.42879 -0.43054,0.80728 -0.75873,1.13548 -0.32818,0.32817 -0.70672,0.58107 -1.13556,0.75869 -0.42877,0.17762 -0.87524,0.26644 -1.33929,0.26646 H 208 c -0.46414,-2e-5 -0.91061,-0.0888 -1.33942,-0.26646 -0.4288,-0.17762 -0.80729,-0.43052 -1.13546,-0.75869 -0.32821,-0.3282 -0.58112,-0.70669 -0.75872,-1.13548 -0.17762,-0.4288 -0.26642,-0.87526 -0.2664,-1.33937 z" /><text
             id="text44"
             style="font-variant:normal;font-weight:bold;font-size:12px;font-family:'Liberation Sans';-inkscape-font-specification:LiberationSans-Bold;writing-mode:lr-tb;fill:#4a5568;fill-opacity:1;fill-rule:nonzero;stroke:none"
             transform="translate(204,151)"><tspan
               id="tspan42"
               y="0"
               x="0 8.6660156 17.332031 27.328125">NAME</tspan></text>
</g></g></g><g
       id="g46"><g
         clip-path="url(#clipPath52)"
         id="g48"><g
           clip-path="url(#clipPath58)"
           id="g54"><g
             transform="scale(3.125)"
             id="g60"><text
               id="text64"
               style="font-variant:normal;font-weight:normal;font-size:16px;font-family:'Liberation Sans';-inkscape-font-specification:LiberationSans;writing-mode:lr-tb;fill:#a0aec0;fill-opacity:1;fill-rule:nonzero;stroke:none"
               transform="translate(221,192)"><tspan
                 id="tspan62"
                 y="0"
                 x="0 11.554688 20.453125 33.78125 42.679688 51.578125 60.476562 68.476562 72.921875 81.820312 90.71875 104.04688 112.94531 117.39062 121.83594">Company name...</tspan></text>
</g></g></g></g><g
       id="g66"><g
         clip-path="url(#clipPath72)"
         id="g68"><g
           transform="scale(3.125)"
           id="g74"><path
             id="path76"
             style="fill:#ffffff;fill-opacity:1;fill-rule:nonzero;stroke:none"
             d="m 204.5,310 v -38 c -2e-5,-0.46414 0.0888,-0.91061 0.2664,-1.33942 0.1776,-0.42883 0.43051,-0.80734 0.75872,-1.13549 0.32817,-0.32819 0.70666,-0.58109 1.13546,-0.7587 C 207.08939,268.58881 207.53586,268.5 208,268.5 h 454 c 0.46405,0 0.91052,0.0888 1.33929,0.26639 0.42884,0.17761 0.80738,0.43051 1.13556,0.7587 0.32819,0.32815 0.58106,0.70666 0.75873,1.13549 0.17755,0.42881 0.26636,0.87528 0.26642,1.33942 v 38 c -6e-5,0.46411 -0.0889,0.91055 -0.26642,1.33936 -0.17767,0.4288 -0.43054,0.80731 -0.75873,1.13549 -0.32818,0.32819 -0.70672,0.58109 -1.13556,0.7587 -0.42877,0.17761 -0.87524,0.26642 -1.33929,0.26645 H 208 c -0.46414,-3e-5 -0.91061,-0.0888 -1.33942,-0.26645 -0.4288,-0.17761 -0.80729,-0.43051 -1.13546,-0.7587 -0.32821,-0.32818 -0.58112,-0.70669 -0.75872,-1.13549 C 204.58878,310.91055 204.49998,310.46411 204.5,310 Z" /><path
             id="path78"
             style="fill:none;stroke:#edf2f7;stroke-width:1;stroke-linecap:butt;stroke-linejoin:miter;stroke-miterlimit:10;stroke-dasharray:none;stroke-opacity:1"
             d="m 204.5,310 v -38 c -2e-5,-0.46414 0.0888,-0.91061 0.2664,-1.33942 0.1776,-0.42883 0.43051,-0.80734 0.75872,-1.13549 0.32817,-0.32819 0.70666,-0.58109 1.13546,-0.7587 C 207.08939,268.58881 207.53586,268.5 208,268.5 h 454 c 0.46405,0 0.91052,0.0888 1.33929,0.26639 0.42884,0.17761 0.80738,0.43051 1.13556,0.7587 0.32819,0.32815 0.58106,0.70666 0.75873,1.13549 0.17755,0.42881 0.26636,0.87528 0.26642,1.33942 v 38 c -6e-5,0.46411 -0.0889,0.91055 -0.26642,1.33936 -0.17767,0.4288 -0.43054,0.80731 -0.75873,1.13549 -0.32818,0.32819 -0.70672,0.58109 -1.13556,0.7587 -0.42877,0.17761 -0.87524,0.26642 -1.33929,0.26645 H 208 c -0.46414,-3e-5 -0.91061,-0.0888 -1.33942,-0.26645 -0.4288,-0.17761 -0.80729,-0.43051 -1.13546,-0.7587 -0.32821,-0.32818 -0.58112,-0.70669 -0.75872,-1.13549 C 204.58878,310.91055 204.49998,310.46411 204.5,310 Z" /><text
             id="text82"
             style="font-variant:normal;font-weight:bold;font-size:12px;font-family:'Liberation Sans';-inkscape-font-specification:LiberationSans-Bold;writing-mode:lr-tb;fill:#4a5568;fill-opacity:1;fill-rule:nonzero;stroke:none"
             transform="translate(204,255)"><tspan
               id="tspan80"
               y="0"
               x="0 3.6339843 12.6 20.23008 29.864063 38.830078 49.126171 57.201561 64.831642 68.46563 78.099617">INFORMATION</tspan></text>
</g></g></g><g
       id="g84"><g
         clip-path="url(#clipPath90)"
         id="g86"><g
           clip-path="url(#clipPath96)"
           id="g92"><g
             transform="scale(3.125)"
             id="g98"><text
               id="text102"
               style="font-variant:normal;font-weight:normal;font-size:16px;font-family:'Liberation Sans';-inkscape-font-specification:LiberationSans;writing-mode:lr-tb;fill:#a0aec0;fill-opacity:1;fill-rule:nonzero;stroke:none"
               transform="translate(221,296)"><tspan
                 id="tspan100"
                 y="0"
                 x="0 14.8125 23.710938 28.15625 36.15625 45.054688 53.953125 61.953125 65.507812 74.40625 77.960938 81.515625 89.515625 98.414062 102.85938 106.41406 115.3125 119.75781 127.75781 135.75781 144.65625 153.55469 158.88281 166.88281 175.78125 183.78125 192.67969 198.00781 201.5625 206.00781 214.00781 218.45312 226.45312 235.35156 239.79688 244.24219 255.79688 264.69531 270.02344">We specialize in cybersecurity software</tspan></text>
</g></g></g></g><g
       id="g104"><g
         clip-path="url(#clipPath110)"
         id="g106"><g
           transform="scale(3.125)"
           id="g112"><path
             id="path114"
             style="fill:#ffffff;fill-opacity:1;fill-rule:nonzero;stroke:none"
             d="m 204.5,410 v -38 c -2e-5,-0.46417 0.0888,-0.91064 0.2664,-1.33945 0.1776,-0.4288 0.43051,-0.80728 0.75872,-1.13543 0.32817,-0.32822 0.70666,-0.58112 1.13546,-0.75873 C 207.08939,368.58881 207.53586,368.5 208,368.5 h 292 c 0.46411,0 0.91055,0.0888 1.33936,0.26639 0.4288,0.17761 0.80728,0.43051 1.13549,0.75873 0.32816,0.32815 0.58106,0.70663 0.75867,1.13543 0.17761,0.42881 0.26645,0.87528 0.26648,1.33945 v 38 c -3e-5,0.46411 -0.0889,0.91055 -0.26648,1.33936 -0.17761,0.4288 -0.43051,0.80728 -0.75867,1.13549 -0.32821,0.32816 -0.70669,0.58106 -1.13549,0.75867 -0.42881,0.17764 -0.87525,0.26645 -1.33936,0.26648 H 208 c -0.46414,-3e-5 -0.91061,-0.0888 -1.33942,-0.26648 -0.4288,-0.17761 -0.80729,-0.43051 -1.13546,-0.75867 -0.32821,-0.32821 -0.58112,-0.70669 -0.75872,-1.13549 C 204.58878,410.91055 204.49998,410.46411 204.5,410 Z" /><path
             id="path116"
             style="fill:none;stroke:#edf2f7;stroke-width:1;stroke-linecap:butt;stroke-linejoin:miter;stroke-miterlimit:10;stroke-dasharray:none;stroke-opacity:1"
             d="m 204.5,410 v -38 c -2e-5,-0.46417 0.0888,-0.91064 0.2664,-1.33945 0.1776,-0.4288 0.43051,-0.80728 0.75872,-1.13543 0.32817,-0.32822 0.70666,-0.58112 1.13546,-0.75873 C 207.08939,368.58881 207.53586,368.5 208,368.5 h 292 c 0.46411,0 0.91055,0.0888 1.33936,0.26639 0.4288,0.17761 0.80728,0.43051 1.13549,0.75873 0.32816,0.32815 0.58106,0.70663 0.75867,1.13543 0.17761,0.42881 0.26645,0.87528 0.26648,1.33945 v 38 c -3e-5,0.46411 -0.0889,0.91055 -0.26648,1.33936 -0.17761,0.4288 -0.43051,0.80728 -0.75867,1.13549 -0.32821,0.32816 -0.70669,0.58106 -1.13549,0.75867 -0.42881,0.17764 -0.87525,0.26645 -1.33936,0.26648 H 208 c -0.46414,-3e-5 -0.91061,-0.0888 -1.33942,-0.26648 -0.4288,-0.17761 -0.80729,-0.43051 -1.13546,-0.75867 -0.32821,-0.32821 -0.58112,-0.70669 -0.75872,-1.13549 C 204.58878,410.91055 204.49998,410.46411 204.5,410 Z" /><text
             id="text120"
             style="font-variant:normal;font-weight:bold;font-size:12px;font-family:'Liberation Sans';-inkscape-font-specification:LiberationSans-Bold;writing-mode:lr-tb;fill:#4a5568;fill-opacity:1;fill-rule:nonzero;stroke:none"
             transform="translate(204,355)"><tspan
               id="tspan118"
               y="0"
               x="0 8.9660158 12.6 20.23008">CITY</tspan></text>
</g></g></g><g
       id="g122"><g
         clip-path="url(#clipPath128)"
         id="g124"><g
           clip-path="url(#clipPath134)"
           id="g130"><g
             transform="scale(3.125)"
             id="g136"><text
               id="text140"
               style="font-variant:normal;font-weight:normal;font-size:16px;font-family:'Liberation Sans';-inkscape-font-specification:LiberationSans;writing-mode:lr-tb;fill:#a0aec0;fill-opacity:1;fill-rule:nonzero;stroke:none"
               transform="translate(221,396)"><tspan
                 id="tspan138"
                 y="0"
                 x="0 11.554688 20.453125 32.007812 36.453125 45.65625 54.554688 59.882812 67.882812 72.328125 83.882812 87.4375 91.882812">New York City</tspan></text>
</g></g></g></g><g
       id="g142"><g
         clip-path="url(#clipPath148)"
         id="g144"><g
           transform="scale(3.125)"
           id="g150"><path
             id="path152"
             style="fill:#ffffff;fill-opacity:1;fill-rule:nonzero;stroke:none"
             d="m 528.5,410 v -38 c -6e-5,-0.46417 0.0888,-0.91064 0.26636,-1.33945 0.17761,-0.4288 0.43054,-0.80728 0.75873,-1.13543 0.32818,-0.32822 0.70666,-0.58112 1.13543,-0.75873 C 531.08936,368.58881 531.53583,368.5 532,368.5 h 130 c 0.46405,0 0.91052,0.0888 1.33929,0.26639 0.42884,0.17761 0.80738,0.43051 1.13556,0.75873 0.32819,0.32815 0.58106,0.70663 0.75873,1.13543 0.17755,0.42881 0.26636,0.87528 0.26642,1.33945 v 38 c -6e-5,0.46411 -0.0889,0.91055 -0.26642,1.33936 -0.17767,0.4288 -0.43054,0.80728 -0.75873,1.13549 -0.32818,0.32816 -0.70672,0.58106 -1.13556,0.75867 -0.42877,0.17764 -0.87524,0.26645 -1.33929,0.26648 H 532 c -0.46417,-3e-5 -0.91064,-0.0888 -1.33942,-0.26648 -0.42883,-0.17761 -0.80731,-0.43051 -1.13549,-0.75867 -0.32819,-0.32821 -0.58112,-0.70669 -0.75873,-1.13549 C 528.58875,410.91055 528.49994,410.46411 528.5,410 Z" /><path
             id="path154"
             style="fill:none;stroke:#edf2f7;stroke-width:1;stroke-linecap:butt;stroke-linejoin:miter;stroke-miterlimit:10;stroke-dasharray:none;stroke-opacity:1"
             d="m 528.5,410 v -38 c -6e-5,-0.46417 0.0888,-0.91064 0.26636,-1.33945 0.17761,-0.4288 0.43054,-0.80728 0.75873,-1.13543 0.32818,-0.32822 0.70666,-0.58112 1.13543,-0.75873 C 531.08936,368.58881 531.53583,368.5 532,368.5 h 130 c 0.46405,0 0.91052,0.0888 1.33929,0.26639 0.42884,0.17761 0.80738,0.43051 1.13556,0.75873 0.32819,0.32815 0.58106,0.70663 0.75873,1.13543 0.17755,0.42881 0.26636,0.87528 0.26642,1.33945 v 38 c -6e-5,0.46411 -0.0889,0.91055 -0.26642,1.33936 -0.17767,0.4288 -0.43054,0.80728 -0.75873,1.13549 -0.32818,0.32816 -0.70672,0.58106 -1.13556,0.75867 -0.42877,0.17764 -0.87524,0.26645 -1.33929,0.26648 H 532 c -0.46417,-3e-5 -0.91064,-0.0888 -1.33942,-0.26648 -0.42883,-0.17761 -0.80731,-0.43051 -1.13549,-0.75867 -0.32819,-0.32821 -0.58112,-0.70669 -0.75873,-1.13549 C 528.58875,410.91055 528.49994,410.46411 528.5,410 Z" /><text
             id="text158"
             style="font-variant:normal;font-weight:bold;font-size:12px;font-family:'Liberation Sans';-inkscape-font-specification:LiberationSans-Bold;writing-mode:lr-tb;fill:#4a5568;fill-opacity:1;fill-rule:nonzero;stroke:none"
             transform="translate(527.98438,355)"><tspan
               id="tspan156"
               y="0"
               x="0 7.6300783 11.264063 19.56797 28.533985 38.167969 47.133984">ZIPCODE</tspan></text>
</g></g></g><g
       id="g160"><g
         clip-path="url(#clipPath166)"
         id="g162"><g
           clip-path="url(#clipPath172)"
           id="g168"><g
             transform="scale(3.125)"
             id="g174"><text
               id="text178"
               style="font-variant:normal;font-weight:normal;font-size:16px;font-family:'Liberation Sans';-inkscape-font-specification:LiberationSans;writing-mode:lr-tb;fill:#a0aec0;fill-opacity:1;fill-rule:nonzero;stroke:none"
               transform="translate(544.98438,396)"><tspan
                 id="tspan176"
                 y="0"
                 x="0 8.8984375 17.796875 26.695312 35.59375 40.039062 50.710938">2819 YO</tspan></text>
</g></g></g></g><g
       id="g180"><g
         clip-path="url(#clipPath186)"
         id="g182"><g
           transform="scale(3.125)"
           id="g188"><path
             id="path190"
             style="fill:#ffffff;fill-opacity:1;fill-rule:nonzero;stroke:none"
             d="m 204.5,514 v -38 c -2e-5,-0.46417 0.0888,-0.91064 0.2664,-1.33945 0.1776,-0.4288 0.43051,-0.80731 0.75872,-1.13546 0.32817,-0.32822 0.70666,-0.58112 1.13546,-0.7587 C 207.08939,472.58881 207.53586,472.5 208,472.5 h 292 c 0.46411,0 0.91055,0.0888 1.33936,0.26639 0.4288,0.17758 0.80728,0.43048 1.13549,0.7587 0.32816,0.32815 0.58106,0.70666 0.75867,1.13546 0.17761,0.42881 0.26645,0.87528 0.26648,1.33945 v 38 c -3e-5,0.46405 -0.0889,0.91052 -0.26648,1.33936 -0.17761,0.42877 -0.43051,0.80731 -0.75867,1.13549 -0.32821,0.32819 -0.70669,0.58106 -1.13549,0.75867 -0.42881,0.17761 -0.87525,0.26642 -1.33936,0.26648 H 208 c -0.46414,-6e-5 -0.91061,-0.0889 -1.33942,-0.26648 -0.4288,-0.17761 -0.80729,-0.43048 -1.13546,-0.75867 -0.32821,-0.32818 -0.58112,-0.70672 -0.75872,-1.13549 C 204.58878,514.91052 204.49998,514.46405 204.5,514 Z" /><path
             id="path192"
             style="fill:none;stroke:#edf2f7;stroke-width:1;stroke-linecap:butt;stroke-linejoin:miter;stroke-miterlimit:10;stroke-dasharray:none;stroke-opacity:1"
             d="m 204.5,514 v -38 c -2e-5,-0.46417 0.0888,-0.91064 0.2664,-1.33945 0.1776,-0.4288 0.43051,-0.80731 0.75872,-1.13546 0.32817,-0.32822 0.70666,-0.58112 1.13546,-0.7587 C 207.08939,472.58881 207.53586,472.5 208,472.5 h 292 c 0.46411,0 0.91055,0.0888 1.33936,0.26639 0.4288,0.17758 0.80728,0.43048 1.13549,0.7587 0.32816,0.32815 0.58106,0.70666 0.75867,1.13546 0.17761,0.42881 0.26645,0.87528 0.26648,1.33945 v 38 c -3e-5,0.46405 -0.0889,0.91052 -0.26648,1.33936 -0.17761,0.42877 -0.43051,0.80731 -0.75867,1.13549 -0.32821,0.32819 -0.70669,0.58106 -1.13549,0.75867 -0.42881,0.17761 -0.87525,0.26642 -1.33936,0.26648 H 208 c -0.46414,-6e-5 -0.91061,-0.0889 -1.33942,-0.26648 -0.4288,-0.17761 -0.80729,-0.43048 -1.13546,-0.75867 -0.32821,-0.32818 -0.58112,-0.70672 -0.75872,-1.13549 C 204.58878,514.91052 204.49998,514.46405 204.5,514 Z" /><text
             id="text196"
             style="font-variant:normal;font-weight:bold;font-size:12px;font-family:'Liberation Sans';-inkscape-font-specification:LiberationSans-Bold;writing-mode:lr-tb;fill:#4a5568;fill-opacity:1;fill-rule:nonzero;stroke:none"
             transform="translate(204,459)"><tspan
               id="tspan194"
               y="0"
               x="0 8.3039064 15.933985 24.900002 33.203907 41.507812">STREET</tspan></text>
</g></g></g><g
       id="g198"><g
         clip-path="url(#clipPath204)"
         id="g200"><g
           clip-path="url(#clipPath210)"
           id="g206"><g
             transform="scale(3.125)"
             id="g212"><text
               id="text216"
               style="font-variant:normal;font-weight:normal;font-size:16px;font-family:'Liberation Sans';-inkscape-font-specification:LiberationSans;writing-mode:lr-tb;fill:#a0aec0;fill-opacity:1;fill-rule:nonzero;stroke:none"
               transform="translate(221,500)"><tspan
                 id="tspan214"
                 y="0"
                 x="0 13.328125 22.226562 25.78125 34.679688 42.679688 47.125 52.453125 61.351562 70.25">Mainstreet</tspan></text>
</g></g></g></g><g
       id="g218"><g
         clip-path="url(#clipPath224)"
         id="g220"><g
           transform="scale(3.125)"
           id="g226"><path
             id="path228"
             style="fill:#ffffff;fill-opacity:1;fill-rule:nonzero;stroke:none"
             d="m 528.5,514 v -38 c -6e-5,-0.46417 0.0888,-0.91064 0.26636,-1.33945 0.17761,-0.4288 0.43054,-0.80731 0.75873,-1.13546 0.32818,-0.32822 0.70666,-0.58112 1.13543,-0.7587 C 531.08936,472.58881 531.53583,472.5 532,472.5 h 130 c 0.46405,0 0.91052,0.0888 1.33929,0.26639 0.42884,0.17758 0.80738,0.43048 1.13556,0.7587 0.32819,0.32815 0.58106,0.70666 0.75873,1.13546 0.17755,0.42881 0.26636,0.87528 0.26642,1.33945 v 38 c -6e-5,0.46405 -0.0889,0.91052 -0.26642,1.33936 -0.17767,0.42877 -0.43054,0.80731 -0.75873,1.13549 -0.32818,0.32819 -0.70672,0.58106 -1.13556,0.75867 -0.42877,0.17761 -0.87524,0.26642 -1.33929,0.26648 H 532 c -0.46417,-6e-5 -0.91064,-0.0889 -1.33942,-0.26648 -0.42883,-0.17761 -0.80731,-0.43048 -1.13549,-0.75867 -0.32819,-0.32818 -0.58112,-0.70672 -0.75873,-1.13549 C 528.58875,514.91052 528.49994,514.46405 528.5,514 Z" /><path
             id="path230"
             style="fill:none;stroke:#edf2f7;stroke-width:1;stroke-linecap:butt;stroke-linejoin:miter;stroke-miterlimit:10;stroke-dasharray:none;stroke-opacity:1"
             d="m 528.5,514 v -38 c -6e-5,-0.46417 0.0888,-0.91064 0.26636,-1.33945 0.17761,-0.4288 0.43054,-0.80731 0.75873,-1.13546 0.32818,-0.32822 0.70666,-0.58112 1.13543,-0.7587 C 531.08936,472.58881 531.53583,472.5 532,472.5 h 130 c 0.46405,0 0.91052,0.0888 1.33929,0.26639 0.42884,0.17758 0.80738,0.43048 1.13556,0.7587 0.32819,0.32815 0.58106,0.70666 0.75873,1.13546 0.17755,0.42881 0.26636,0.87528 0.26642,1.33945 v 38 c -6e-5,0.46405 -0.0889,0.91052 -0.26642,1.33936 -0.17767,0.42877 -0.43054,0.80731 -0.75873,1.13549 -0.32818,0.32819 -0.70672,0.58106 -1.13556,0.75867 -0.42877,0.17761 -0.87524,0.26642 -1.33929,0.26648 H 532 c -0.46417,-6e-5 -0.91064,-0.0889 -1.33942,-0.26648 -0.42883,-0.17761 -0.80731,-0.43048 -1.13549,-0.75867 -0.32819,-0.32818 -0.58112,-0.70672 -0.75873,-1.13549 C 528.58875,514.91052 528.49994,514.46405 528.5,514 Z" /><text
             id="text234"
             style="font-variant:normal;font-weight:bold;font-size:12px;font-family:'Liberation Sans';-inkscape-font-specification:LiberationSans-Bold;writing-mode:lr-tb;fill:#4a5568;fill-opacity:1;fill-rule:nonzero;stroke:none"
             transform="translate(527.98438,459)"><tspan
               id="tspan232"
               y="0"
               x="0 8.9660158 17.932032 28.228127 37.194141 45.498047">NUMBER</tspan></text>
</g></g></g><g
       id="g236"><g
         clip-path="url(#clipPath242)"
         id="g238"><g
           clip-path="url(#clipPath248)"
           id="g244"><g
             transform="scale(3.125)"
             id="g250"><text
               id="text254"
               style="font-variant:normal;font-weight:normal;font-size:16px;font-family:'Liberation Sans';-inkscape-font-specification:LiberationSans;writing-mode:lr-tb;fill:#a0aec0;fill-opacity:1;fill-rule:nonzero;stroke:none"
               transform="translate(544.98438,500)"><tspan
                 id="tspan252"
                 y="0"
                 x="0 8.8984375 17.796875 22.242188">21 A</tspan></text>
</g></g></g></g><g
       id="g256"><g
         clip-path="url(#clipPath262)"
         id="g258"><g
           transform="scale(3.125)"
           id="g264"><path
             id="path266"
             style="fill:#e9d8fd;fill-opacity:1;fill-rule:nonzero;stroke:none"
             d="m 690,82 h 1 v 475 h -1 z" /><path
             id="path268"
             style="fill:#e9d8fd;fill-opacity:1;fill-rule:nonzero;stroke:none"
             d="m 1176,106 c 0,1.05057 -0.1025,2.09106 -0.3075,3.12144 -0.2049,1.03039 -0.5084,2.03089 -0.9105,3.00149 -0.402,0.97061 -0.8949,1.89266 -1.4785,2.76619 -0.5836,0.87351 -1.247,1.6817 -1.9898,2.42459 -0.7429,0.74286 -1.5511,1.40612 -2.4247,1.9898 -0.8736,0.58366 -1.7956,1.07651 -2.7662,1.47855 -0.9706,0.40205 -1.9711,0.70554 -3.0015,0.9105 -1.0304,0.20495 -2.0708,0.30743 -3.1213,0.30744 -1.0507,-1e-5 -2.0912,-0.10249 -3.1216,-0.30745 -1.0304,-0.20495 -2.0309,-0.50844 -3.0014,-0.91049 -0.9706,-0.40204 -1.8927,-0.89489 -2.7662,-1.47855 -0.8735,-0.58368 -1.6817,-1.24694 -2.4245,-1.9898 -0.7428,-0.74289 -1.4061,-1.55108 -1.9899,-2.4246 -0.5837,-0.87352 -1.0766,-1.79558 -1.4786,-2.76619 -0.402,-0.9706 -0.7055,-1.97109 -0.9104,-3.00148 C 1144.1024,108.09106 1144,107.05057 1144,106 c 0,-1.05057 0.1024,-2.09106 0.3074,-3.12145 0.2049,-1.03039 0.5084,-2.03089 0.9104,-3.001498 0.402,-0.970604 0.8949,-1.892669 1.4786,-2.766189 0.5838,-0.87352 1.2471,-1.68171 1.9899,-2.424576 0.7428,-0.742867 1.551,-1.406136 2.4245,-1.989807 0.8735,-0.583664 1.7956,-1.076515 2.7662,-1.478554 0.9705,-0.402039 1.971,-0.705536 3.0014,-0.910492 C 1157.9088,90.102478 1158.9493,90 1160,90 c 1.0505,0 2.0909,0.102478 3.1213,0.307434 1.0304,0.204956 2.0309,0.508453 3.0015,0.910492 0.9706,0.402039 1.8926,0.89489 2.7662,1.478546 0.8736,0.583672 1.6818,1.246948 2.4247,1.989815 0.7428,0.742866 1.4062,1.551056 1.9898,2.424576 0.5836,0.873527 1.0765,1.795593 1.4785,2.766197 0.4021,0.9706 0.7056,1.9711 0.9105,3.00149 0.205,1.03039 0.3075,2.07088 0.3075,3.12145 z" /><text
             id="text272"
             style="font-variant:normal;font-weight:bold;font-size:14px;font-family:'Liberation Sans';-inkscape-font-specification:LiberationSans-Bold;writing-mode:lr-tb;fill:#2c3e50;fill-opacity:1;fill-rule:nonzero;stroke:none"
             transform="translate(1156.1094,111)"><tspan
               id="tspan270"
               y="0"
               x="0">2</tspan></text>
<text
             id="text276"
             style="font-variant:normal;font-weight:bold;font-size:16px;font-family:'Liberation Sans';-inkscape-font-specification:LiberationSans-Bold;writing-mode:lr-tb;fill:#2c3e50;fill-opacity:1;fill-rule:nonzero;stroke:none"
             transform="translate(715,107)"><tspan
               id="tspan274"
               y="0"
               x="0 11.554688 20.453125 30.226562 36.453125 45.351562 54.25 63.148438 72.921875 78.25 87.148438 92.476562 96.921875 105.82031 114.71875 119.16406 130.71875 139.61719 149.39062 153.83594 162.73438 168.0625 174.28906 183.1875 188.51562 192.96094 202.73438">Representative Registration</tspan></text>
<path
             id="path278"
             style="fill:#ffffff;fill-opacity:1;fill-rule:nonzero;stroke:none"
             d="m 715.5,206 v -38 c 0,-0.46413 0.0888,-0.9106 0.26636,-1.3394 0.17761,-0.4288 0.43054,-0.8073 0.75873,-1.13548 0.32818,-0.32821 0.70666,-0.5811 1.13543,-0.7587 C 718.08929,164.58881 718.53583,164.5 719,164.5 h 211 c 0.46405,0 0.91052,0.0888 1.33929,0.26642 0.42878,0.1776 0.80732,0.43049 1.13556,0.7587 0.32819,0.32818 0.58106,0.70668 0.75861,1.13548 0.17767,0.4288 0.26654,0.87527 0.26654,1.3394 v 38 c 0,0.46411 -0.0888,0.91057 -0.26648,1.33937 -0.17761,0.42879 -0.43048,0.80728 -0.75867,1.13548 -0.32824,0.32817 -0.70678,0.58107 -1.13556,0.75869 -0.42877,0.17762 -0.87524,0.26644 -1.33929,0.26646 H 719 c -0.46417,-2e-5 -0.91071,-0.0888 -1.33948,-0.26646 -0.42877,-0.17762 -0.80725,-0.43052 -1.13543,-0.75869 -0.32819,-0.3282 -0.58112,-0.70669 -0.75873,-1.13548 C 715.58881,206.91057 715.5,206.46411 715.5,206 Z" /><path
             id="path280"
             style="fill:none;stroke:#edf2f7;stroke-width:1;stroke-linecap:butt;stroke-linejoin:miter;stroke-miterlimit:10;stroke-dasharray:none;stroke-opacity:1"
             d="m 715.5,206 v -38 c 0,-0.46413 0.0888,-0.9106 0.26636,-1.3394 0.17761,-0.4288 0.43054,-0.8073 0.75873,-1.13548 0.32818,-0.32821 0.70666,-0.5811 1.13543,-0.7587 C 718.08929,164.58881 718.53583,164.5 719,164.5 h 211 c 0.46405,0 0.91052,0.0888 1.33929,0.26642 0.42878,0.1776 0.80732,0.43049 1.13556,0.7587 0.32819,0.32818 0.58106,0.70668 0.75861,1.13548 0.17767,0.4288 0.26654,0.87527 0.26654,1.3394 v 38 c 0,0.46411 -0.0888,0.91057 -0.26648,1.33937 -0.17761,0.42879 -0.43048,0.80728 -0.75867,1.13548 -0.32824,0.32817 -0.70678,0.58107 -1.13556,0.75869 -0.42877,0.17762 -0.87524,0.26644 -1.33929,0.26646 H 719 c -0.46417,-2e-5 -0.91071,-0.0888 -1.33948,-0.26646 -0.42877,-0.17762 -0.80725,-0.43052 -1.13543,-0.75869 -0.32819,-0.3282 -0.58112,-0.70669 -0.75873,-1.13548 C 715.58881,206.91057 715.5,206.46411 715.5,206 Z" /><text
             id="text284"
             style="font-variant:normal;font-weight:bold;font-size:12px;font-family:'Liberation Sans';-inkscape-font-specification:LiberationSans-Bold;writing-mode:lr-tb;fill:#4a5568;fill-opacity:1;fill-rule:nonzero;stroke:none"
             transform="translate(715,151)"><tspan
               id="tspan282"
               y="0"
               x="0 7.3300781 10.664062 19.330078 27.333984 34.664062 37.998047 46.664062 55.330078 65.326172">FIRST NAME</tspan></text>
</g></g></g><g
       id="g286"><g
         clip-path="url(#clipPath292)"
         id="g288"><g
           clip-path="url(#clipPath298)"
           id="g294"><g
             transform="scale(3.125)"
             id="g300"><text
               id="text304"
               style="font-variant:normal;font-weight:normal;font-size:16px;font-family:'Liberation Sans';-inkscape-font-specification:LiberationSans;writing-mode:lr-tb;fill:#a0aec0;fill-opacity:1;fill-rule:nonzero;stroke:none"
               transform="translate(732,192)"><tspan
                 id="tspan302"
                 y="0"
                 x="0 8 16.898438 25.796875">John</tspan></text>
</g></g></g></g><g
       id="g306"><g
         clip-path="url(#clipPath312)"
         id="g308"><g
           transform="scale(3.125)"
           id="g314"><path
             id="path316"
             style="fill:#ffffff;fill-opacity:1;fill-rule:nonzero;stroke:none"
             d="m 958.5,206 v -38 c -6e-5,-0.46413 0.0888,-0.9106 0.26636,-1.3394 0.17755,-0.4288 0.43048,-0.8073 0.75873,-1.13548 0.32812,-0.32821 0.7066,-0.5811 1.13537,-0.7587 C 961.08923,164.58881 961.53577,164.5 962,164.5 h 210 c 0.464,0 0.9104,0.0888 1.3392,0.26642 0.4289,0.1776 0.8074,0.43049 1.1355,0.7587 0.3282,0.32818 0.5811,0.70668 0.7587,1.13548 0.1776,0.4288 0.2665,0.87527 0.2666,1.3394 v 38 c -10e-5,0.46411 -0.089,0.91057 -0.2666,1.33937 -0.1776,0.42879 -0.4305,0.80728 -0.7587,1.13548 -0.3281,0.32817 -0.7066,0.58107 -1.1355,0.75869 -0.4288,0.17762 -0.8752,0.26644 -1.3392,0.26646 H 962 c -0.46423,-2e-5 -0.91077,-0.0888 -1.33954,-0.26646 -0.42877,-0.17762 -0.80725,-0.43052 -1.13537,-0.75869 -0.32825,-0.3282 -0.58118,-0.70669 -0.75879,-1.13548 -0.17755,-0.4288 -0.26636,-0.87526 -0.2663,-1.33937 z" /><path
             id="path318"
             style="fill:none;stroke:#edf2f7;stroke-width:1;stroke-linecap:butt;stroke-linejoin:miter;stroke-miterlimit:10;stroke-dasharray:none;stroke-opacity:1"
             d="m 958.5,206 v -38 c -6e-5,-0.46413 0.0888,-0.9106 0.26636,-1.3394 0.17755,-0.4288 0.43048,-0.8073 0.75873,-1.13548 0.32812,-0.32821 0.7066,-0.5811 1.13537,-0.7587 C 961.08923,164.58881 961.53577,164.5 962,164.5 h 210 c 0.464,0 0.9104,0.0888 1.3392,0.26642 0.4289,0.1776 0.8074,0.43049 1.1355,0.7587 0.3282,0.32818 0.5811,0.70668 0.7587,1.13548 0.1776,0.4288 0.2665,0.87527 0.2666,1.3394 v 38 c -10e-5,0.46411 -0.089,0.91057 -0.2666,1.33937 -0.1776,0.42879 -0.4305,0.80728 -0.7587,1.13548 -0.3281,0.32817 -0.7066,0.58107 -1.1355,0.75869 -0.4288,0.17762 -0.8752,0.26644 -1.3392,0.26646 H 962 c -0.46423,-2e-5 -0.91077,-0.0888 -1.33954,-0.26646 -0.42877,-0.17762 -0.80725,-0.43052 -1.13537,-0.75869 -0.32825,-0.3282 -0.58118,-0.70669 -0.75879,-1.13548 -0.17755,-0.4288 -0.26636,-0.87526 -0.2663,-1.33937 z" /><text
             id="text322"
             style="font-variant:normal;font-weight:bold;font-size:12px;font-family:'Liberation Sans';-inkscape-font-specification:LiberationSans-Bold;writing-mode:lr-tb;fill:#4a5568;fill-opacity:1;fill-rule:nonzero;stroke:none"
             transform="translate(957.5,151)"><tspan
               id="tspan320"
               y="0"
               x="0 7.3300781 15.996094 24 31.330078 34.664062 43.330078 51.996094 61.992188">LAST NAME</tspan></text>
</g></g></g><g
       id="g324"><g
         clip-path="url(#clipPath330)"
         id="g326"><g
           clip-path="url(#clipPath336)"
           id="g332"><g
             transform="scale(3.125)"
             id="g338"><text
               id="text342"
               style="font-variant:normal;font-weight:normal;font-size:16px;font-family:'Liberation Sans';-inkscape-font-specification:LiberationSans;writing-mode:lr-tb;fill:#a0aec0;fill-opacity:1;fill-rule:nonzero;stroke:none"
               transform="translate(974.5,192)"><tspan
                 id="tspan340"
                 y="0"
                 x="0 10.671875 24 27.554688 32">Smith</tspan></text>
</g></g></g></g><g
       id="g344"><g
         clip-path="url(#clipPath350)"
         id="g346"><g
           transform="scale(3.125)"
           id="g352"><path
             id="path354"
             style="fill:#ffffff;fill-opacity:1;fill-rule:nonzero;stroke:none"
             d="m 715.5,306 v -38 c 0,-0.46414 0.0888,-0.91064 0.26636,-1.33945 0.17761,-0.4288 0.43054,-0.80728 0.75873,-1.13546 0.32818,-0.32819 0.70666,-0.58109 1.13543,-0.7587 C 718.08929,264.58881 718.53583,264.5 719,264.5 h 453 c 0.464,0 0.9104,0.0888 1.3392,0.26639 0.4289,0.17761 0.8074,0.43051 1.1355,0.7587 0.3282,0.32818 0.5811,0.70666 0.7587,1.13546 0.1776,0.42881 0.2665,0.87531 0.2666,1.33945 v 38 c -10e-5,0.46411 -0.089,0.91055 -0.2666,1.33936 -0.1776,0.4288 -0.4305,0.80728 -0.7587,1.13549 -0.3281,0.32816 -0.7066,0.58106 -1.1355,0.75867 -0.4288,0.17761 -0.8752,0.26645 -1.3392,0.26648 H 719 c -0.46417,-3e-5 -0.91071,-0.0889 -1.33948,-0.26648 -0.42877,-0.17761 -0.80725,-0.43051 -1.13543,-0.75867 -0.32819,-0.32821 -0.58112,-0.70669 -0.75873,-1.13549 C 715.58881,306.91055 715.5,306.46411 715.5,306 Z" /><path
             id="path356"
             style="fill:none;stroke:#edf2f7;stroke-width:1;stroke-linecap:butt;stroke-linejoin:miter;stroke-miterlimit:10;stroke-dasharray:none;stroke-opacity:1"
             d="m 715.5,306 v -38 c 0,-0.46414 0.0888,-0.91064 0.26636,-1.33945 0.17761,-0.4288 0.43054,-0.80728 0.75873,-1.13546 0.32818,-0.32819 0.70666,-0.58109 1.13543,-0.7587 C 718.08929,264.58881 718.53583,264.5 719,264.5 h 453 c 0.464,0 0.9104,0.0888 1.3392,0.26639 0.4289,0.17761 0.8074,0.43051 1.1355,0.7587 0.3282,0.32818 0.5811,0.70666 0.7587,1.13546 0.1776,0.42881 0.2665,0.87531 0.2666,1.33945 v 38 c -10e-5,0.46411 -0.089,0.91055 -0.2666,1.33936 -0.1776,0.4288 -0.4305,0.80728 -0.7587,1.13549 -0.3281,0.32816 -0.7066,0.58106 -1.1355,0.75867 -0.4288,0.17761 -0.8752,0.26645 -1.3392,0.26648 H 719 c -0.46417,-3e-5 -0.91071,-0.0889 -1.33948,-0.26648 -0.42877,-0.17761 -0.80725,-0.43051 -1.13543,-0.75867 -0.32819,-0.32821 -0.58112,-0.70669 -0.75873,-1.13549 C 715.58881,306.91055 715.5,306.46411 715.5,306 Z" /><text
             id="text360"
             style="font-variant:normal;font-weight:bold;font-size:12px;font-family:'Liberation Sans';-inkscape-font-specification:LiberationSans-Bold;writing-mode:lr-tb;fill:#4a5568;fill-opacity:1;fill-rule:nonzero;stroke:none"
             transform="translate(715,251)"><tspan
               id="tspan358"
               y="0"
               x="0 6.6738281 16.007812 24.673828 28.007812 35.337891 38.671875 46.001953 53.332031">JOB TITLE</tspan></text>
</g></g></g><g
       id="g362"><g
         clip-path="url(#clipPath368)"
         id="g364"><g
           clip-path="url(#clipPath374)"
           id="g370"><g
             transform="scale(3.125)"
             id="g376"><text
               id="text380"
               style="font-variant:normal;font-weight:normal;font-size:16px;font-family:'Liberation Sans';-inkscape-font-specification:LiberationSans;writing-mode:lr-tb;fill:#a0aec0;fill-opacity:1;fill-rule:nonzero;stroke:none"
               transform="translate(732,292)"><tspan
                 id="tspan378"
                 y="0"
                 x="0 11.554688 20.453125 28.453125 33.78125 42.679688 46.234375 50.679688 59.578125">Recruiter</tspan></text>
</g></g></g></g><g
       id="g382"><g
         clip-path="url(#clipPath388)"
         id="g384"><g
           transform="scale(3.125)"
           id="g390"><path
             id="path392"
             style="fill:#ffffff;fill-opacity:1;fill-rule:nonzero;stroke:none"
             d="m 715.5,406 v -38 c 0,-0.46414 0.0888,-0.91061 0.26636,-1.33942 0.17761,-0.42883 0.43054,-0.80731 0.75873,-1.13546 0.32818,-0.32822 0.70666,-0.58115 1.13543,-0.75873 C 718.08929,364.58881 718.53583,364.5 719,364.5 h 453 c 0.464,0 0.9104,0.0888 1.3392,0.26639 0.4289,0.17758 0.8074,0.43051 1.1355,0.75873 0.3282,0.32815 0.5811,0.70663 0.7587,1.13546 0.1776,0.42881 0.2665,0.87528 0.2666,1.33942 v 38 c -10e-5,0.46408 -0.089,0.91052 -0.2666,1.33932 -0.1776,0.42881 -0.4305,0.80729 -0.7587,1.1355 -0.3281,0.32816 -0.7066,0.58106 -1.1355,0.7587 -0.4288,0.17761 -0.8752,0.26645 -1.3392,0.26648 H 719 c -0.46417,-3e-5 -0.91071,-0.0889 -1.33948,-0.26648 -0.42877,-0.17764 -0.80725,-0.43054 -1.13543,-0.7587 -0.32819,-0.32821 -0.58112,-0.70669 -0.75873,-1.1355 C 715.58881,406.91052 715.5,406.46408 715.5,406 Z" /><path
             id="path394"
             style="fill:none;stroke:#edf2f7;stroke-width:1;stroke-linecap:butt;stroke-linejoin:miter;stroke-miterlimit:10;stroke-dasharray:none;stroke-opacity:1"
             d="m 715.5,406 v -38 c 0,-0.46414 0.0888,-0.91061 0.26636,-1.33942 0.17761,-0.42883 0.43054,-0.80731 0.75873,-1.13546 0.32818,-0.32822 0.70666,-0.58115 1.13543,-0.75873 C 718.08929,364.58881 718.53583,364.5 719,364.5 h 453 c 0.464,0 0.9104,0.0888 1.3392,0.26639 0.4289,0.17758 0.8074,0.43051 1.1355,0.75873 0.3282,0.32815 0.5811,0.70663 0.7587,1.13546 0.1776,0.42881 0.2665,0.87528 0.2666,1.33942 v 38 c -10e-5,0.46408 -0.089,0.91052 -0.2666,1.33932 -0.1776,0.42881 -0.4305,0.80729 -0.7587,1.1355 -0.3281,0.32816 -0.7066,0.58106 -1.1355,0.7587 -0.4288,0.17761 -0.8752,0.26645 -1.3392,0.26648 H 719 c -0.46417,-3e-5 -0.91071,-0.0889 -1.33948,-0.26648 -0.42877,-0.17764 -0.80725,-0.43054 -1.13543,-0.7587 -0.32819,-0.32821 -0.58112,-0.70669 -0.75873,-1.1355 C 715.58881,406.91052 715.5,406.46408 715.5,406 Z" /><text
             id="text398"
             style="font-variant:normal;font-weight:bold;font-size:12px;font-family:'Liberation Sans';-inkscape-font-specification:LiberationSans-Bold;writing-mode:lr-tb;fill:#4a5568;fill-opacity:1;fill-rule:nonzero;stroke:none"
             transform="translate(715,351)"><tspan
               id="tspan396"
               y="0"
               x="0 8.0039062 18 26.666016 30">EMAIL</tspan></text>
</g></g></g><g
       id="g400"><g
         clip-path="url(#clipPath406)"
         id="g402"><g
           clip-path="url(#clipPath412)"
           id="g408"><g
             clip-path="url(#clipPath418)"
             id="g414"><g
               transform="scale(3.125)"
               id="g420"><text
                 id="text424"
                 style="font-variant:normal;font-weight:normal;font-size:16px;font-family:'Liberation Sans';-inkscape-font-specification:LiberationSans;writing-mode:lr-tb;fill:#a0aec0;fill-opacity:1;fill-rule:nonzero;stroke:none"
                 transform="translate(732,392)"><tspan
                   id="tspan422"
                   y="0"
                   x="0 3.5546875 12.453125 21.351562 30.25 38.25 51.578125 55.132812 59.578125 68.476562 84.71875 93.617188 106.94531 115.84375 119.39844 122.95312 127.39844 135.39844 144.29688">johnsmith@email.com</tspan></text>
</g></g></g></g></g><g
       id="g426"><g
         clip-path="url(#clipPath432)"
         id="g428"><g
           transform="scale(3.125)"
           id="g434"><path
             id="path436"
             style="fill:#ffffff;fill-opacity:1;fill-rule:nonzero;stroke:none"
             d="m 715.5,506 v -38 c 0,-0.46417 0.0888,-0.91068 0.26636,-1.33948 0.17761,-0.4288 0.43054,-0.80728 0.75873,-1.13547 0.32818,-0.32818 0.70666,-0.58108 1.13543,-0.75866 C 718.08929,464.58881 718.53583,464.5 719,464.5 h 453 c 0.464,0 0.9104,0.0888 1.3392,0.26639 0.4289,0.17758 0.8074,0.43048 1.1355,0.75866 0.3282,0.32819 0.5811,0.70667 0.7587,1.13547 0.1776,0.4288 0.2665,0.87531 0.2666,1.33948 v 38 c -10e-5,0.46408 -0.089,0.91052 -0.2666,1.33932 -0.1776,0.42881 -0.4305,0.80729 -0.7587,1.1355 -0.3281,0.32816 -0.7066,0.58106 -1.1355,0.75867 -0.4288,0.17761 -0.8752,0.26645 -1.3392,0.26651 H 719 c -0.46417,-6e-5 -0.91071,-0.0889 -1.33948,-0.26651 -0.42877,-0.17761 -0.80725,-0.43051 -1.13543,-0.75867 -0.32819,-0.32821 -0.58112,-0.70669 -0.75873,-1.1355 C 715.58881,506.91052 715.5,506.46408 715.5,506 Z" /><path
             id="path438"
             style="fill:none;stroke:#edf2f7;stroke-width:1;stroke-linecap:butt;stroke-linejoin:miter;stroke-miterlimit:10;stroke-dasharray:none;stroke-opacity:1"
             d="m 715.5,506 v -38 c 0,-0.46417 0.0888,-0.91068 0.26636,-1.33948 0.17761,-0.4288 0.43054,-0.80728 0.75873,-1.13547 0.32818,-0.32818 0.70666,-0.58108 1.13543,-0.75866 C 718.08929,464.58881 718.53583,464.5 719,464.5 h 453 c 0.464,0 0.9104,0.0888 1.3392,0.26639 0.4289,0.17758 0.8074,0.43048 1.1355,0.75866 0.3282,0.32819 0.5811,0.70667 0.7587,1.13547 0.1776,0.4288 0.2665,0.87531 0.2666,1.33948 v 38 c -10e-5,0.46408 -0.089,0.91052 -0.2666,1.33932 -0.1776,0.42881 -0.4305,0.80729 -0.7587,1.1355 -0.3281,0.32816 -0.7066,0.58106 -1.1355,0.75867 -0.4288,0.17761 -0.8752,0.26645 -1.3392,0.26651 H 719 c -0.46417,-6e-5 -0.91071,-0.0889 -1.33948,-0.26651 -0.42877,-0.17761 -0.80725,-0.43051 -1.13543,-0.75867 -0.32819,-0.32821 -0.58112,-0.70669 -0.75873,-1.1355 C 715.58881,506.91052 715.5,506.46408 715.5,506 Z" /><text
             id="text442"
             style="font-variant:normal;font-weight:bold;font-size:12px;font-family:'Liberation Sans';-inkscape-font-specification:LiberationSans-Bold;writing-mode:lr-tb;fill:#4a5568;fill-opacity:1;fill-rule:nonzero;stroke:none"
             transform="translate(715,451)"><tspan
               id="tspan440"
               y="0"
               x="0 7.1132812 15.779297 23.783203 31.787109 43.113281 52.447266 61.113281">PASSWORD</tspan></text>
</g></g></g><g
       id="g444"><g
         clip-path="url(#clipPath450)"
         id="g446"><g
           clip-path="url(#clipPath456)"
           id="g452"><g
             transform="scale(3.125)"
             id="g458"><text
               id="text462"
               style="font-variant:normal;font-weight:normal;font-size:16px;font-family:'Liberation Sans';-inkscape-font-specification:LiberationSans;writing-mode:lr-tb;fill:#a0aec0;fill-opacity:1;fill-rule:nonzero;stroke:none"
               transform="translate(732,492)"><tspan
                 id="tspan460"
                 y="0"
                 x="0 6.2265625 12.453125 18.679688 24.90625 31.132812 37.359375 43.585938 49.8125 56.039062 62.265625 68.492188 74.71875 80.945312 87.171875 93.398438 99.625 105.85156">******************</tspan></text>
</g></g></g></g><g
       id="g464"><g
         clip-path="url(#clipPath470)"
         id="g466"><g
           transform="scale(3.125)"
           id="g472"><text
             id="text476"
             style="font-style:italic;font-variant:normal;font-size:12px;font-family:'Liberation Sans';-inkscape-font-specification:LiberationSans-Italic;writing-mode:lr-tb;fill:#718096;fill-opacity:1;fill-rule:nonzero;stroke:none"
             transform="translate(719,525)"><tspan
               id="tspan474"
               y="0"
               x="0 3.3339844 6.6679688 10.001953 16.001953 22.675781 29.349609 36.023438 38.689453 45.363281 48.697266 55.371094 62.044922 65.378906 72.052734 75.386719 78.052734 84.726562 91.400391 97.400391 100.73438 104.06836 110.74219 114.07617 120.07617 126.75 133.42383 137.41992 144.09375 150.09375 153.42773 160.10156 164.09766 170.09766 173.43164 176.09766 182.77148 189.44531 196.11914 199.45312 202.78711 208.78711 215.46094 222.13477 225.46875 232.14258 234.80859 241.48242 244.81641 251.49023 258.16406 268.16016 274.83398 281.50781 285.50391 291.50391 294.83789 298.17188 300.83789 307.51172 310.8457 314.17969 320.85352 324.84961 330.84961 334.18359 340.85742 347.53125 354.20508 357.53906 363.53906 370.21289 376.88672 382.88672 385.55273 392.22656 394.89258 398.22656 404.22656 410.90039 417.57422 421.57031 428.24414 434.24414 437.57812 444.25195 448.24805">It should be atleast 8 characters long, contain numbers, letters and special characters</tspan></text>
<path
             id="path478"
             style="fill:#ffffff;fill-opacity:1;fill-rule:nonzero;stroke:none"
             d="m 588.5,575 c 0,-0.88641 0.0864,-1.76434 0.25934,-2.63379 0.17291,-0.86938 0.42895,-1.71356 0.76819,-2.53253 0.33923,-0.81897 0.75506,-1.59692 1.24756,-2.33392 0.49249,-0.73706 1.05212,-1.41901 1.67895,-2.04578 0.62677,-0.62677 1.30866,-1.1864 2.04572,-1.67889 0.737,-0.4925 1.51495,-0.90833 2.33392,-1.2475 0.81897,-0.33924 1.66315,-0.59528 2.53253,-0.76819 C 600.23566,561.58649 601.11359,561.5 602,561.5 h 46 c 0.88641,0 1.76434,0.0865 2.63367,0.2594 0.86932,0.17291 1.7135,0.42895 2.53247,0.76819 0.81891,0.33917 1.59692,0.755 2.33398,1.2475 0.737,0.49249 1.41895,1.05212 2.04578,1.67889 0.62677,0.62677 1.1864,1.30872 1.67883,2.04571 0.49249,0.737 0.90833,1.51502 1.24756,2.33399 0.33923,0.81897 0.59534,1.66315 0.76825,2.53253 0.17291,0.86945 0.2594,1.74738 0.25946,2.63379 -6e-5,0.88641 -0.0865,1.76428 -0.25946,2.63367 -0.17291,0.86944 -0.42902,1.71362 -0.76825,2.53253 -0.33923,0.81891 -0.75507,1.59692 -1.24756,2.33392 -0.49243,0.737 -1.05206,1.41895 -1.67883,2.04578 -0.62683,0.62677 -1.30878,1.1864 -2.04578,1.67889 -0.73706,0.4925 -1.51507,0.90833 -2.33398,1.24756 -0.81897,0.33917 -1.66315,0.59528 -2.53247,0.76819 C 649.76434,588.41351 648.88641,588.5 648,588.5 h -46 c -0.88641,0 -1.76434,-0.0865 -2.63379,-0.25946 -0.86938,-0.17291 -1.71356,-0.42902 -2.53253,-0.76819 -0.81897,-0.33923 -1.59692,-0.75506 -2.33392,-1.24756 -0.73706,-0.49249 -1.41895,-1.05212 -2.04572,-1.67889 -0.62683,-0.62683 -1.18646,-1.30878 -1.67895,-2.04578 -0.4925,-0.737 -0.90833,-1.51501 -1.24756,-2.33392 -0.33924,-0.81891 -0.59528,-1.66309 -0.76819,-2.53253 C 588.58643,576.76428 588.5,575.88641 588.5,575 Z" /><path
             id="path480"
             style="fill:none;stroke:#b794f4;stroke-width:1;stroke-linecap:butt;stroke-linejoin:miter;stroke-miterlimit:10;stroke-dasharray:none;stroke-opacity:1"
             d="m 588.5,575 c 0,-0.88641 0.0864,-1.76434 0.25934,-2.63379 0.17291,-0.86938 0.42895,-1.71356 0.76819,-2.53253 0.33923,-0.81897 0.75506,-1.59692 1.24756,-2.33392 0.49249,-0.73706 1.05212,-1.41901 1.67895,-2.04578 0.62677,-0.62677 1.30866,-1.1864 2.04572,-1.67889 0.737,-0.4925 1.51495,-0.90833 2.33392,-1.2475 0.81897,-0.33924 1.66315,-0.59528 2.53253,-0.76819 C 600.23566,561.58649 601.11359,561.5 602,561.5 h 46 c 0.88641,0 1.76434,0.0865 2.63367,0.2594 0.86932,0.17291 1.7135,0.42895 2.53247,0.76819 0.81891,0.33917 1.59692,0.755 2.33398,1.2475 0.737,0.49249 1.41895,1.05212 2.04578,1.67889 0.62677,0.62677 1.1864,1.30872 1.67883,2.04571 0.49249,0.737 0.90833,1.51502 1.24756,2.33399 0.33923,0.81897 0.59534,1.66315 0.76825,2.53253 0.17291,0.86945 0.2594,1.74738 0.25946,2.63379 -6e-5,0.88641 -0.0865,1.76428 -0.25946,2.63367 -0.17291,0.86944 -0.42902,1.71362 -0.76825,2.53253 -0.33923,0.81891 -0.75507,1.59692 -1.24756,2.33392 -0.49243,0.737 -1.05206,1.41895 -1.67883,2.04578 -0.62683,0.62677 -1.30878,1.1864 -2.04578,1.67889 -0.73706,0.4925 -1.51507,0.90833 -2.33398,1.24756 -0.81897,0.33917 -1.66315,0.59528 -2.53247,0.76819 C 649.76434,588.41351 648.88641,588.5 648,588.5 h -46 c -0.88641,0 -1.76434,-0.0865 -2.63379,-0.25946 -0.86938,-0.17291 -1.71356,-0.42902 -2.53253,-0.76819 -0.81897,-0.33923 -1.59692,-0.75506 -2.33392,-1.24756 -0.73706,-0.49249 -1.41895,-1.05212 -2.04572,-1.67889 -0.62683,-0.62683 -1.18646,-1.30878 -1.67895,-2.04578 -0.4925,-0.737 -0.90833,-1.51501 -1.24756,-2.33392 -0.33924,-0.81891 -0.59528,-1.66309 -0.76819,-2.53253 C 588.58643,576.76428 588.5,575.88641 588.5,575 Z" /><text
             id="text484"
             style="font-variant:normal;font-weight:bold;font-size:12px;font-family:'Liberation Sans';-inkscape-font-specification:LiberationSans-Bold;writing-mode:lr-tb;fill:#2c3e50;fill-opacity:1;fill-rule:nonzero;stroke:none"
             transform="translate(605.29688,579)"><tspan
               id="tspan482"
               y="0"
               x="0 8.6660156 15.339844 22.669922 29.34375 36.017578">Cancel</tspan></text>
<path
             id="path486"
             style="fill:#9f7aea;fill-opacity:1;fill-rule:nonzero;stroke:none"
             d="m 710.5,575 c -6e-5,-0.88641 0.0864,-1.76434 0.25934,-2.63379 0.17291,-0.86938 0.42901,-1.71356 0.76825,-2.53253 0.33917,-0.81897 0.75506,-1.59692 1.24756,-2.33392 0.49243,-0.73706 1.05206,-1.41901 1.67889,-2.04578 0.62677,-0.62677 1.30866,-1.1864 2.04572,-1.67889 0.737,-0.4925 1.51501,-0.90833 2.33398,-1.2475 0.81897,-0.33924 1.66315,-0.59528 2.53247,-0.76819 C 722.23566,561.58649 723.11359,561.5 724,561.5 h 54 c 0.88641,0 1.76434,0.0865 2.63373,0.2594 0.86932,0.17291 1.7135,0.42895 2.53247,0.76819 0.81891,0.33917 1.59692,0.755 2.33398,1.2475 0.737,0.49249 1.41895,1.05212 2.04572,1.67889 0.62677,0.62677 1.1864,1.30872 1.67889,2.04571 0.4925,0.737 0.90833,1.51502 1.24756,2.33399 0.33923,0.81897 0.59534,1.66315 0.76825,2.53253 0.17291,0.86945 0.25934,1.74738 0.2594,2.63379 -6e-5,0.88641 -0.0865,1.76428 -0.2594,2.63367 -0.17291,0.86944 -0.42902,1.71362 -0.76825,2.53253 -0.33923,0.81891 -0.75506,1.59692 -1.24756,2.33392 -0.49249,0.737 -1.05212,1.41895 -1.67889,2.04578 -0.62677,0.62677 -1.30872,1.1864 -2.04572,1.67889 -0.73706,0.4925 -1.51507,0.90833 -2.33398,1.24756 -0.81897,0.33917 -1.66315,0.59528 -2.53247,0.76819 C 779.76434,588.41351 778.88641,588.5 778,588.5 h -54 c -0.88641,0 -1.76434,-0.0865 -2.63373,-0.25946 -0.86938,-0.17291 -1.71356,-0.42902 -2.53253,-0.76819 -0.81897,-0.33923 -1.59698,-0.75506 -2.33398,-1.24756 -0.73706,-0.49249 -1.41895,-1.05212 -2.04572,-1.67889 -0.62683,-0.62683 -1.18646,-1.30878 -1.67889,-2.04578 -0.4925,-0.737 -0.90839,-1.51501 -1.24756,-2.33392 -0.33924,-0.81891 -0.59528,-1.66309 -0.76819,-2.53253 C 710.58643,576.76428 710.49994,575.88641 710.5,575 Z" /><path
             id="path488"
             style="fill:none;stroke:#9f7aea;stroke-width:1;stroke-linecap:butt;stroke-linejoin:miter;stroke-miterlimit:10;stroke-dasharray:none;stroke-opacity:1"
             d="m 710.5,575 c -6e-5,-0.88641 0.0864,-1.76434 0.25934,-2.63379 0.17291,-0.86938 0.42901,-1.71356 0.76825,-2.53253 0.33917,-0.81897 0.75506,-1.59692 1.24756,-2.33392 0.49243,-0.73706 1.05206,-1.41901 1.67889,-2.04578 0.62677,-0.62677 1.30866,-1.1864 2.04572,-1.67889 0.737,-0.4925 1.51501,-0.90833 2.33398,-1.2475 0.81897,-0.33924 1.66315,-0.59528 2.53247,-0.76819 C 722.23566,561.58649 723.11359,561.5 724,561.5 h 54 c 0.88641,0 1.76434,0.0865 2.63373,0.2594 0.86932,0.17291 1.7135,0.42895 2.53247,0.76819 0.81891,0.33917 1.59692,0.755 2.33398,1.2475 0.737,0.49249 1.41895,1.05212 2.04572,1.67889 0.62677,0.62677 1.1864,1.30872 1.67889,2.04571 0.4925,0.737 0.90833,1.51502 1.24756,2.33399 0.33923,0.81897 0.59534,1.66315 0.76825,2.53253 0.17291,0.86945 0.25934,1.74738 0.2594,2.63379 -6e-5,0.88641 -0.0865,1.76428 -0.2594,2.63367 -0.17291,0.86944 -0.42902,1.71362 -0.76825,2.53253 -0.33923,0.81891 -0.75506,1.59692 -1.24756,2.33392 -0.49249,0.737 -1.05212,1.41895 -1.67889,2.04578 -0.62677,0.62677 -1.30872,1.1864 -2.04572,1.67889 -0.73706,0.4925 -1.51507,0.90833 -2.33398,1.24756 -0.81897,0.33917 -1.66315,0.59528 -2.53247,0.76819 C 779.76434,588.41351 778.88641,588.5 778,588.5 h -54 c -0.88641,0 -1.76434,-0.0865 -2.63373,-0.25946 -0.86938,-0.17291 -1.71356,-0.42902 -2.53253,-0.76819 -0.81897,-0.33923 -1.59698,-0.75506 -2.33398,-1.24756 -0.73706,-0.49249 -1.41895,-1.05212 -2.04572,-1.67889 -0.62683,-0.62683 -1.18646,-1.30878 -1.67889,-2.04578 -0.4925,-0.737 -0.90839,-1.51501 -1.24756,-2.33392 -0.33924,-0.81891 -0.59528,-1.66309 -0.76819,-2.53253 C 710.58643,576.76428 710.49994,575.88641 710.5,575 Z" /><text
             id="text492"
             style="font-variant:normal;font-weight:bold;font-size:12px;font-family:'Liberation Sans';-inkscape-font-specification:LiberationSans-Bold;writing-mode:lr-tb;fill:#ffffff;fill-opacity:1;fill-rule:nonzero;stroke:none"
             transform="translate(726.65625,579)"><tspan
               id="tspan490"
               y="0"
               x="0 8.6660156 15.339844 22.669922 26.003906 32.677734 36.673828 43.347656">Register</tspan></text>
</g></g></g></g></svg>